# Blender 4.3.2
# www.blender.org
mtllib muzzle_cone_fp.mtl
o MuzzleCone
v 0.000000 -0.200000 0.047037
v 0.039018 -0.196157 0.047037
v 0.076537 -0.184776 0.047037
v 0.111114 -0.166294 0.047037
v 0.141421 -0.141421 0.047037
v 0.166294 -0.111114 0.047037
v 0.184776 -0.076537 0.047037
v 0.196157 -0.039018 0.047037
v 0.200000 0.000000 0.047037
v 0.196157 0.039018 0.047037
v 0.184776 0.076537 0.047037
v 0.166294 0.111114 0.047037
v 0.141421 0.141421 0.047037
v 0.111114 0.166294 0.047037
v 0.076537 0.184776 0.047037
v 0.039018 0.196157 0.047037
v 0.000000 0.200000 0.047037
v -0.039018 0.196157 0.047037
v -0.076537 0.184776 0.047037
v -0.111114 0.166294 0.047037
v -0.141421 0.141421 0.047037
v -0.166294 0.111114 0.047037
v -0.184776 0.076537 0.047037
v -0.196157 0.039018 0.047037
v -0.200000 0.000000 0.047037
v -0.196157 -0.039018 0.047037
v -0.184776 -0.076537 0.047037
v -0.166294 -0.111114 0.047037
v -0.141421 -0.141421 0.047037
v -0.111114 -0.166294 0.047037
v -0.076537 -0.184776 0.047037
v -0.039018 -0.196157 0.047037
v 0.000000 -0.100000 0.016013
v 0.019509 -0.098079 0.016013
v 0.038268 -0.092388 0.016013
v 0.055557 -0.083147 0.016013
v 0.070711 -0.070711 0.016013
v 0.083147 -0.055557 0.016013
v 0.092388 -0.038268 0.016013
v 0.098079 -0.019509 0.016013
v 0.100000 0.000000 0.016013
v 0.098079 0.019509 0.016013
v 0.092388 0.038268 0.016013
v 0.083147 0.055557 0.016013
v 0.070711 0.070711 0.016013
v 0.055557 0.083147 0.016013
v 0.038268 0.092388 0.016013
v 0.019509 0.098079 0.016013
v 0.000000 0.100000 0.016013
v -0.019509 0.098079 0.016013
v -0.038268 0.092388 0.016013
v -0.055557 0.083147 0.016013
v -0.070711 0.070711 0.016013
v -0.083147 0.055557 0.016013
v -0.092388 0.038268 0.016013
v -0.098079 0.019509 0.016013
v -0.100000 0.000000 0.016013
v -0.098079 -0.019509 0.016013
v -0.092388 -0.038268 0.016013
v -0.083147 -0.055557 0.016013
v -0.070711 -0.070711 0.016013
v -0.055557 -0.083147 0.016013
v -0.038268 -0.092388 0.016013
v -0.019509 -0.098079 0.016013
v 0.000000 -0.022002 0.000000
v 0.004292 -0.021579 0.000000
v 0.008420 -0.020327 0.000000
v 0.012224 -0.018294 0.000000
v 0.015558 -0.015558 0.000000
v 0.018294 -0.012224 0.000000
v 0.020327 -0.008420 0.000000
v 0.021579 -0.004292 0.000000
v 0.022002 0.000000 0.000000
v 0.021579 0.004292 -0.000000
v 0.020327 0.008420 -0.000000
v 0.018294 0.012224 -0.000000
v 0.015558 0.015558 -0.000000
v 0.012224 0.018294 -0.000000
v 0.008420 0.020327 -0.000000
v 0.004292 0.021579 -0.000000
v 0.000000 0.022002 -0.000000
v -0.004292 0.021579 -0.000000
v -0.008420 0.020327 -0.000000
v -0.012224 0.018294 -0.000000
v -0.015558 0.015558 -0.000000
v -0.018294 0.012224 -0.000000
v -0.020327 0.008420 -0.000000
v -0.021579 0.004292 -0.000000
v -0.022002 0.000000 0.000000
v -0.021579 -0.004292 0.000000
v -0.020327 -0.008420 0.000000
v -0.018294 -0.012224 0.000000
v -0.015558 -0.015558 0.000000
v -0.012224 -0.018294 0.000000
v -0.008420 -0.020327 0.000000
v -0.004292 -0.021579 0.000000
vn -0.0578 -0.2906 -0.9551
vn -0.0491 -0.2470 -0.9678
vn -0.0000 -0.2519 -0.9678
vn -0.0000 -0.2963 -0.9551
vn -0.1134 -0.2738 -0.9551
vn -0.0964 -0.2327 -0.9678
vn -0.1646 -0.2464 -0.9551
vn -0.1399 -0.2094 -0.9678
vn -0.2095 -0.2095 -0.9551
vn -0.1781 -0.1781 -0.9678
vn -0.2464 -0.1646 -0.9551
vn -0.2094 -0.1399 -0.9678
vn -0.2738 -0.1134 -0.9551
vn -0.2327 -0.0964 -0.9678
vn -0.2906 -0.0578 -0.9551
vn -0.2470 -0.0491 -0.9678
vn -0.2963 -0.0000 -0.9551
vn -0.2519 -0.0000 -0.9678
vn -0.2906 0.0578 -0.9551
vn -0.2470 0.0491 -0.9678
vn -0.2738 0.1134 -0.9551
vn -0.2327 0.0964 -0.9678
vn -0.2464 0.1646 -0.9551
vn -0.2094 0.1399 -0.9678
vn -0.2095 0.2095 -0.9551
vn -0.1781 0.1781 -0.9678
vn -0.1646 0.2464 -0.9551
vn -0.1399 0.2094 -0.9678
vn -0.1134 0.2738 -0.9551
vn -0.0964 0.2327 -0.9678
vn -0.0578 0.2906 -0.9551
vn -0.0491 0.2470 -0.9678
vn -0.0000 0.2963 -0.9551
vn -0.0000 0.2519 -0.9678
vn 0.0578 0.2906 -0.9551
vn 0.0491 0.2470 -0.9678
vn 0.1134 0.2738 -0.9551
vn 0.0964 0.2327 -0.9678
vn 0.1646 0.2464 -0.9551
vn 0.1399 0.2094 -0.9678
vn 0.2095 0.2095 -0.9551
vn 0.1781 0.1781 -0.9678
vn 0.2464 0.1646 -0.9551
vn 0.2094 0.1399 -0.9678
vn 0.2738 0.1134 -0.9551
vn 0.2327 0.0964 -0.9678
vn 0.2906 0.0578 -0.9551
vn 0.2470 0.0491 -0.9678
vn 0.2963 -0.0000 -0.9551
vn 0.2519 -0.0000 -0.9678
vn 0.2906 -0.0578 -0.9551
vn 0.2470 -0.0491 -0.9678
vn 0.2738 -0.1134 -0.9551
vn 0.2327 -0.0964 -0.9678
vn 0.2464 -0.1646 -0.9551
vn 0.2094 -0.1399 -0.9678
vn 0.2095 -0.2095 -0.9551
vn 0.1781 -0.1781 -0.9678
vn 0.1646 -0.2464 -0.9551
vn 0.1399 -0.2094 -0.9678
vn 0.1134 -0.2738 -0.9551
vn 0.0964 -0.2327 -0.9678
vn 0.0578 -0.2906 -0.9551
vn 0.0491 -0.2470 -0.9678
vn -0.0392 -0.1972 -0.9796
vn -0.0000 -0.2011 -0.9796
vn -0.0770 -0.1858 -0.9796
vn -0.1117 -0.1672 -0.9796
vn -0.1422 -0.1422 -0.9796
vn -0.1672 -0.1117 -0.9796
vn -0.1858 -0.0770 -0.9796
vn -0.1972 -0.0392 -0.9796
vn -0.2011 -0.0000 -0.9796
vn -0.1972 0.0392 -0.9796
vn -0.1858 0.0770 -0.9796
vn -0.1672 0.1117 -0.9796
vn -0.1422 0.1422 -0.9796
vn -0.1117 0.1672 -0.9796
vn -0.0770 0.1858 -0.9796
vn -0.0392 0.1972 -0.9796
vn -0.0000 0.2011 -0.9796
vn 0.0392 0.1972 -0.9796
vn 0.0770 0.1858 -0.9796
vn 0.1117 0.1672 -0.9796
vn 0.1422 0.1422 -0.9796
vn 0.1672 0.1117 -0.9796
vn 0.1858 0.0770 -0.9796
vn 0.1972 0.0392 -0.9796
vn 0.2011 -0.0000 -0.9796
vn 0.1972 -0.0392 -0.9796
vn 0.1858 -0.0770 -0.9796
vn 0.1672 -0.1117 -0.9796
vn 0.1422 -0.1422 -0.9796
vn 0.1117 -0.1672 -0.9796
vn 0.0770 -0.1858 -0.9796
vn 0.0392 -0.1972 -0.9796
vt 0.402455 0.990392
vt 0.451227 0.745196
vt 0.500000 0.750000
vt 0.500000 1.000000
vt 0.308658 0.961940
vt 0.404329 0.730970
vt 0.222215 0.915735
vt 0.361107 0.707867
vt 0.146447 0.853553
vt 0.323223 0.676777
vt 0.084265 0.777785
vt 0.292133 0.638892
vt 0.038060 0.691342
vt 0.269030 0.595671
vt 0.009607 0.597545
vt 0.254804 0.548772
vt 0.000000 0.500000
vt 0.250000 0.500000
vt 0.009607 0.402455
vt 0.254804 0.451227
vt 0.038060 0.308658
vt 0.269030 0.404329
vt 0.084265 0.222215
vt 0.292133 0.361107
vt 0.146447 0.146447
vt 0.323223 0.323223
vt 0.222215 0.084265
vt 0.361107 0.292132
vt 0.308658 0.038060
vt 0.404329 0.269030
vt 0.402455 0.009607
vt 0.451227 0.254804
vt 0.500000 0.000000
vt 0.500000 0.250000
vt 0.597545 0.009607
vt 0.548773 0.254804
vt 0.691342 0.038060
vt 0.595671 0.269030
vt 0.777785 0.084265
vt 0.638893 0.292132
vt 0.853554 0.146447
vt 0.676777 0.323223
vt 0.915735 0.222215
vt 0.707868 0.361107
vt 0.961940 0.308658
vt 0.730970 0.404329
vt 0.990393 0.402455
vt 0.745196 0.451227
vt 1.000000 0.500000
vt 0.750000 0.500000
vt 0.990393 0.597545
vt 0.745196 0.548772
vt 0.961940 0.691342
vt 0.730970 0.595671
vt 0.915735 0.777785
vt 0.707868 0.638892
vt 0.853554 0.853553
vt 0.676777 0.676777
vt 0.777785 0.915735
vt 0.638893 0.707867
vt 0.691342 0.961940
vt 0.595671 0.730970
vt 0.597545 0.990392
vt 0.548773 0.745196
vt 0.489269 0.553948
vt 0.500000 0.555005
vt 0.478951 0.550818
vt 0.469441 0.545735
vt 0.461106 0.538894
vt 0.454265 0.530559
vt 0.449182 0.521049
vt 0.446052 0.510731
vt 0.444995 0.500000
vt 0.446052 0.489269
vt 0.449182 0.478950
vt 0.454265 0.469441
vt 0.461106 0.461106
vt 0.469441 0.454265
vt 0.478951 0.449182
vt 0.489269 0.446052
vt 0.500000 0.444995
vt 0.510731 0.446052
vt 0.521049 0.449182
vt 0.530559 0.454265
vt 0.538894 0.461106
vt 0.545735 0.469441
vt 0.550818 0.478950
vt 0.553948 0.489269
vt 0.555005 0.500000
vt 0.553948 0.510731
vt 0.550818 0.521049
vt 0.545735 0.530559
vt 0.538894 0.538894
vt 0.530559 0.545735
vt 0.521049 0.550818
vt 0.510731 0.553948
s 1
f 32/1/1 64/2/2 33/3/3 1/4/4
f 31/5/5 63/6/6 64/2/2 32/1/1
f 30/7/7 62/8/8 63/6/6 31/5/5
f 29/9/9 61/10/10 62/8/8 30/7/7
f 28/11/11 60/12/12 61/10/10 29/9/9
f 27/13/13 59/14/14 60/12/12 28/11/11
f 26/15/15 58/16/16 59/14/14 27/13/13
f 25/17/17 57/18/18 58/16/16 26/15/15
f 24/19/19 56/20/20 57/18/18 25/17/17
f 23/21/21 55/22/22 56/20/20 24/19/19
f 22/23/23 54/24/24 55/22/22 23/21/21
f 21/25/25 53/26/26 54/24/24 22/23/23
f 20/27/27 52/28/28 53/26/26 21/25/25
f 19/29/29 51/30/30 52/28/28 20/27/27
f 18/31/31 50/32/32 51/30/30 19/29/29
f 17/33/33 49/34/34 50/32/32 18/31/31
f 16/35/35 48/36/36 49/34/34 17/33/33
f 15/37/37 47/38/38 48/36/36 16/35/35
f 14/39/39 46/40/40 47/38/38 15/37/37
f 13/41/41 45/42/42 46/40/40 14/39/39
f 12/43/43 44/44/44 45/42/42 13/41/41
f 11/45/45 43/46/46 44/44/44 12/43/43
f 10/47/47 42/48/48 43/46/46 11/45/45
f 9/49/49 41/50/50 42/48/48 10/47/47
f 8/51/51 40/52/52 41/50/50 9/49/49
f 7/53/53 39/54/54 40/52/52 8/51/51
f 6/55/55 38/56/56 39/54/54 7/53/53
f 5/57/57 37/58/58 38/56/56 6/55/55
f 4/59/59 36/60/60 37/58/58 5/57/57
f 3/61/61 35/62/62 36/60/60 4/59/59
f 2/63/63 34/64/64 35/62/62 3/61/61
f 1/4/4 33/3/3 34/64/64 2/63/63
f 64/2/2 96/65/65 65/66/66 33/3/3
f 63/6/6 95/67/67 96/65/65 64/2/2
f 62/8/8 94/68/68 95/67/67 63/6/6
f 61/10/10 93/69/69 94/68/68 62/8/8
f 60/12/12 92/70/70 93/69/69 61/10/10
f 59/14/14 91/71/71 92/70/70 60/12/12
f 58/16/16 90/72/72 91/71/71 59/14/14
f 57/18/18 89/73/73 90/72/72 58/16/16
f 56/20/20 88/74/74 89/73/73 57/18/18
f 55/22/22 87/75/75 88/74/74 56/20/20
f 54/24/24 86/76/76 87/75/75 55/22/22
f 53/26/26 85/77/77 86/76/76 54/24/24
f 52/28/28 84/78/78 85/77/77 53/26/26
f 51/30/30 83/79/79 84/78/78 52/28/28
f 50/32/32 82/80/80 83/79/79 51/30/30
f 49/34/34 81/81/81 82/80/80 50/32/32
f 48/36/36 80/82/82 81/81/81 49/34/34
f 47/38/38 79/83/83 80/82/82 48/36/36
f 46/40/40 78/84/84 79/83/83 47/38/38
f 45/42/42 77/85/85 78/84/84 46/40/40
f 44/44/44 76/86/86 77/85/85 45/42/42
f 43/46/46 75/87/87 76/86/86 44/44/44
f 42/48/48 74/88/88 75/87/87 43/46/46
f 41/50/50 73/89/89 74/88/88 42/48/48
f 40/52/52 72/90/90 73/89/89 41/50/50
f 39/54/54 71/91/91 72/90/90 40/52/52
f 38/56/56 70/92/92 71/91/91 39/54/54
f 37/58/58 69/93/93 70/92/92 38/56/56
f 36/60/60 68/94/94 69/93/93 37/58/58
f 35/62/62 67/95/95 68/94/94 36/60/60
f 34/64/64 66/96/96 67/95/95 35/62/62
f 33/3/3 65/66/66 66/96/96 34/64/64
